<?xml version="1.0" encoding="utf-8"?>
<!-- Generator: Adobe Illustrator 25.2.0, SVG Export Plug-In . SVG Version: 6.00 Build 0)  -->
<svg version="1.1" id="레이어_1" xmlns="http://www.w3.org/2000/svg" xmlns:xlink="http://www.w3.org/1999/xlink" x="0px"
	 y="0px" viewBox="0 0 170 60" style="enable-background:new 0 0 170 60;" xml:space="preserve">
<style type="text/css">
	.st0{fill:#0089CF;}
	.st1{fill:#0066B3;}
</style>
<g>
	<polygon class="st0" points="3.8,39.5 15.9,49.1 162.6,39.8 162.7,39.5 	"/>
	<g>
		<path class="st1" d="M161.3,27.1l1.5-6.4c-18,0-18,0-19.6,0c0.1-0.6,0.5-1.6,0.7-2.2h19.7l1.6-6.5h-31.8l-6,24h32l1.6-6.6
			c0,0-18.2,0-19.8,0c0.2-0.7,0.5-1.8,0.7-2.3H161.3z"/>
		<path class="st1" d="M130.6,12h-14.3c0,0-6,9.3-8,12.4c-0.5-3-2.1-12.4-2.1-12.4H92.7l-6,24h10.8c0,0,1.4-6.2,2.3-9.9
			c0.7,3.8,1.3,9.9,1.3,9.9h8.7c0,0,4.2-6.4,6.6-10.2c-0.9,3.8-2.8,10.2-2.8,10.2h11L130.6,12z"/>
		<path class="st1" d="M53,17c-1-1.9-2.8-3.2-5.1-4c-2.3-0.8-5.2-1.1-8.7-1.1H21.9l-6,24h17.3c2.5,0,4.8-0.2,6.6-0.5
			c1.9-0.3,3.5-0.8,4.7-1.3c1.3-0.5,2.5-1.3,3.7-2.2c1.2-0.9,2.3-2.1,3.3-3.5c0.7-1,1.2-2,1.6-3.1c0.2-0.5,0.4-1.1,0.5-1.6
			C54.2,21.1,54,18.9,53,17 M41.4,23.5C41.4,23.6,41.4,23.6,41.4,23.5c-0.2,0.7-0.4,1.3-0.6,1.8c-0.2,0.5-0.5,0.9-0.9,1.3
			c-0.7,0.8-1.4,1.3-2.3,1.6c-0.9,0.3-2.7,0.5-4.5,0.5c0,0-2.5,0-3.2,0l2.5-10.2c0.8,0,3.5,0,3.5,0c1.8,0,3.1,0.1,3.9,0.4
			c0.5,0.2,0.9,0.4,1.2,0.8c0.3,0.4,0.5,0.9,0.6,1.6C41.7,22.1,41.6,22.8,41.4,23.5z"/>
		<path class="st1" d="M87.3,28c0.2-1,0-2.4-0.3-3.3c-1-2.7-3.7-4.1-8.9-4.1h-8.4c-1.1,0-2.3-0.1-2.6-1.1c-0.2-0.5,0.2-1.1,1.3-1.1
			h19.5l1.7-6.5h-22c-4.6,0.1-6.8,0.4-8.8,1.6c-2.1,1.2-3.5,3.1-3.7,5.7c-0.2,2.5,0.7,4.4,2.5,5.8c1.8,1.5,5.4,2.1,8.6,2.1h8
			c1.1,0,1.5,0.7,1.3,1.1c-0.4,0.8-1.3,1.1-2.4,1.1H53.9l-1.7,6.5c0,0,22.3,0,22.4,0c2.9-0.1,6.5-0.9,8.8-2.3
			c2.2-1.4,3.3-3.2,3.8-5.2L87.3,28z"/>
	</g>
</g>
</svg>
